# xmcd CD database file
#
# Track frame offsets:
#	150
#	17311
#	40026
#	57295
#	82310
#	107214
#	122718
#	141448
#	159710
#	175178
#	195848
#
# Disc length: 2926 seconds
#
# Revision: 0
# Processed by: cddbd v1.5.2PL0 Copyright (c) Steve Scherf et al.
# Submitted via: CDex 1.51
#
DISCID=8e0b6c0b
DTITLE=urban, keith - defying gravity
DYEAR=2008
DGENRE=Country
TTITLE0=kiss a girl
TTITLE1=if ever i could love
TTITLE2=sweet thing
TTITLE3='til summer comes arounf
TTITLE4=my heart is open
TTITLE5=hit the ground running
TTITLE6=only you can love me this way
TTITLE7=standing right in front of you
TTITLE8=why's it feel so long
TTITLE9=i'm in
TTITLE10=thank you
EXTD=YEAR: 2008
EXTT0=
EXTT1=
EXTT2=
EXTT3=
EXTT4=
EXTT5=
EXTT6=
EXTT7=
EXTT8=
EXTT9=
EXTT10=
PLAYORDER=
